<svg xmlns="http://www.w3.org/2000/svg" xmlns:xlink="http://www.w3.org/1999/xlink" viewBox="388.1 181.06 940.31 669.84"><defs><linearGradient id="gradient_0" gradientUnits="userSpaceOnUse" x1="1937.8188" y1="346.51538" x2="1468.7566" y2="1587.1698"><stop offset="0" stop-color="#FF9EC0"/><stop offset="1" stop-color="#B091FC"/></linearGradient></defs><path fill="url(#gradient_0)" transform="matrix(0.514423 0 0 0.540598 3.05176e-05 0)" d="M1807.4 335.411C1807.78 335.37 1808.16 335.303 1808.54 335.288C1889.64 332.089 1974.8 349.702 2046.33 388.901C2060.26 396.534 2073.75 405.755 2086.96 414.584C2104.56 426.346 2122.48 438.445 2137.93 453.002C2172.08 485.191 2212.43 533.362 2232.13 576.196C2234.12 580.51 2234.26 585.271 2236 589.622C2240.24 600.216 2245.38 610.404 2249.49 621.1C2259.49 647.166 2268.86 676.88 2270.27 704.921C2270.69 713.305 2272.45 719.304 2280.24 723.302C2294.33 730.529 2312.65 730.001 2327.85 733.967C2370.09 744.99 2432.04 779.557 2463.46 809.23C2514.8 857.71 2551.12 912.826 2569.84 981.421C2572.53 991.269 2575.65 1001.34 2577.38 1011.4C2581.29 1034.1 2582.33 1057.72 2582.32 1080.72C2582.32 1095.06 2580.44 1111.18 2578.08 1125.34C2576.79 1133.05 2574.08 1140.53 2574.38 1148.42C2574.5 1151.79 2574.62 1155.28 2573.77 1158.58C2571.31 1168.21 2566.45 1177.75 2563.12 1187.18C2548.24 1229.3 2530.33 1262.84 2502.19 1297.8C2496.33 1305.08 2490.4 1313.46 2483.71 1319.94C2468.64 1334.53 2451.17 1348.28 2434.13 1360.37C2420.62 1369.94 2407 1379.72 2392.12 1387.09C2382.82 1391.7 2372.52 1394.64 2362.86 1398.45C2352.63 1402.49 2342.38 1407.1 2331.87 1410.31C2311.74 1416.45 2281.69 1421.09 2260.44 1422.02C2234.02 1423.18 2215.59 1423.6 2189.03 1419.87C2182.49 1418.96 2165.94 1414.74 2160.35 1417.09C2149.9 1421.49 2136.91 1440.66 2128.7 1449.12C2122.2 1455.82 2115.22 1462.19 2108.36 1468.54C2093.95 1481.89 2065.47 1505.99 2049.02 1515.72C2041.8 1519.99 2033.17 1522.56 2025.55 1526.16C2010.26 1533.39 1995.01 1541.35 1979.33 1547.69C1951.71 1558.85 1908.18 1569.43 1879.02 1572.61C1821.94 1578.83 1723.86 1563.39 1672.14 1538C1658.22 1531.16 1643.37 1524.44 1630.11 1516.47C1610.14 1504.47 1592.46 1486.33 1569.58 1480.51C1562.33 1482.37 1555.5 1485.07 1548.6 1487.94C1543.04 1490.33 1537.64 1493.17 1532.19 1495.81C1511.29 1505.94 1488.3 1513.07 1465.83 1518.8C1449.24 1523.04 1433.02 1527.44 1416.01 1529.77C1369.73 1536.11 1308.85 1530.74 1264.66 1515.07C1237.99 1505.62 1222.26 1495.15 1199.17 1479.53C1191.35 1474.24 1182.99 1469.39 1175.72 1463.36C1165.76 1455.09 1157.03 1445.88 1147.99 1436.67C1142.73 1431.31 1136.5 1426 1131.9 1420.11C1124.18 1410.21 1114.39 1395.63 1109.03 1384.39C1105.51 1377.02 1102.99 1369.15 1099.24 1361.89C1097.55 1358.62 1092.64 1357.29 1089.23 1356.85C1080.21 1355.67 1070.55 1357.61 1061.35 1356.93C1031.24 1354.73 999.416 1349.66 970.618 1340.67C946.175 1333.05 927.118 1322.71 905.099 1310.14C895.262 1304.52 884.996 1299.17 876.194 1291.97C858.404 1277.43 842.208 1259.18 827.042 1241.97C816.835 1230.38 804.567 1217.37 797.547 1203.52C793.948 1196.42 791.319 1188.67 788.085 1181.38C782.902 1169.7 776.733 1158.32 772.39 1146.29C753.927 1093.93 749.607 1037.62 759.865 983.051C762.472 969.27 765.181 955.175 769.873 941.935C785.693 897.289 812.663 851.457 846.322 817.849C855.729 808.456 865.694 800.929 876.009 792.702C883.986 786.338 891.658 779.474 900.044 773.65C918.192 761.044 940.67 751.204 961.387 743.666C979.187 737.188 1011.16 736.264 1024.23 729.66C1027.35 728.085 1027.8 727.119 1028.85 723.692C1032.55 711.717 1033.45 698.513 1035.98 686.189C1040.2 665.624 1046.25 644.832 1053.27 625.062C1058.35 610.751 1068.38 597.14 1076.19 584.175C1083.39 572.23 1090.33 559.747 1098.54 548.464C1131.84 502.694 1176.76 474.272 1227.37 451.098C1252.22 439.721 1282.65 430.949 1309.88 428.257C1323.35 426.926 1337.44 427.402 1350.97 427.254C1384.38 426.889 1411.35 428.645 1443.69 438.467C1467.34 445.65 1489.2 457.45 1512.3 466.111C1515.79 465.233 1519.49 464.411 1522.64 462.578C1530.25 458.133 1536.73 450.679 1543.22 444.747C1550.85 437.761 1558.95 430.923 1567.16 424.623C1624.72 379.717 1692.89 350.405 1765.08 339.515C1779.2 337.319 1793.24 336.947 1807.4 335.411Z"/><path fill="#FEFEFD" transform="matrix(0.514423 0 0 0.540598 3.05176e-05 0)" d="M1832.01 395.12C1842.45 395.891 1852.97 395.115 1863.42 395.918C1885.86 397.641 1909.68 402.766 1931.37 408.825C2015.14 432.223 2092.83 479.875 2144.72 550.671C2153.27 562.34 2160.36 574.907 2167.53 587.442C2181.96 612.652 2194.6 640.621 2202.29 668.716C2205.69 681.125 2208.41 694.527 2210.13 707.275C2212.66 726.028 2211.81 746.794 2221.91 763.593C2233.44 782.757 2256.12 782.044 2275.09 785.919C2287.54 788.462 2299.98 791.455 2312.36 794.334C2325.14 797.305 2336.8 803.383 2348.72 808.708C2357.72 812.731 2366.93 816.551 2375.55 821.341C2398.42 834.04 2428.98 857.298 2445.63 877.184C2454.21 887.431 2460.73 898.609 2468.34 909.508C2473.64 917.109 2479.6 924.292 2484.46 932.191C2492.2 944.751 2497.63 959.259 2502.62 973.121C2526.13 1038.34 2523.79 1092.55 2507.41 1159.38C2502.15 1180.82 2490.74 1202 2479.6 1220.84C2471.75 1234.11 2462.85 1249.63 2452.37 1261.01C2449.1 1264.55 2444.8 1266.95 2441.53 1270.56C2431.08 1282.14 2419.98 1293.97 2407.75 1303.72C2372.01 1332.22 2321.15 1351.59 2275.85 1357.3C2262.96 1358.93 2249.09 1359.05 2236.09 1359.01C2226.07 1358.99 2215.46 1358.18 2205.58 1356.6C2184.73 1353.27 2158.19 1343.97 2137.77 1352.05C2118.94 1359.51 2102.56 1386.01 2088.93 1401C2078.8 1412.13 2067.63 1423.38 2056.4 1433.4C2041.27 1446.89 2021.56 1458.29 2004.13 1468.72C1961.84 1494.02 1883.68 1513.73 1834.75 1511.81C1824.12 1511.39 1812.64 1510.28 1802.21 1508.17C1798.23 1507.36 1794.25 1505.37 1790.25 1504.96C1786.92 1504.61 1783.59 1505.86 1780.32 1505.61C1774.9 1505.19 1768.49 1502.32 1763.08 1500.95C1754.26 1498.73 1745.18 1497.48 1736.44 1494.92C1717.27 1489.28 1693.16 1479.08 1675.69 1469.29C1654.21 1457.25 1609.09 1422.14 1589.59 1417.39C1571.34 1412.94 1545.46 1417.39 1529.59 1427.28L1528.45 1428C1527.31 1428.68 1526.17 1429.33 1525.02 1430C1511.44 1437.96 1495.65 1444.14 1481 1450.04C1462.16 1457.64 1441.69 1461.67 1421.73 1464.97C1333.26 1479.57 1252.19 1458.41 1191.41 1390.87C1185.53 1384.34 1178.8 1377.85 1173.65 1370.76C1161.08 1353.47 1148.17 1311.34 1130.94 1301.1C1103.89 1285.04 1069.15 1293.76 1039.26 1291.37C1026.33 1290.33 1008.52 1285.54 995.638 1282.37C969.604 1275.97 947.099 1260.2 922.61 1249.91C914.884 1237.56 902.152 1227.06 891.877 1216.61C864.093 1188.37 850.589 1172.36 836.136 1135.11C830.804 1121.37 826.136 1107.8 823.12 1093.33C811.727 1038.67 814.333 1000.7 834.973 948.998C839.851 936.78 844.304 924.534 851.57 913.498C894.014 849.039 934.944 814.397 1010.78 795.115C1020.95 792.529 1031.47 791.711 1041.72 789.542C1055.33 786.662 1075.38 779.439 1083.18 767.277C1094.95 748.925 1092.68 725.058 1095.61 704.444C1097.34 692.295 1100.46 678.422 1104.16 666.765C1106.14 660.528 1109.3 654.512 1112.07 648.577C1117.12 637.72 1122.15 626.895 1128.49 616.704C1136.9 603.163 1147.09 590.441 1155.93 577.074C1162.04 567.841 1185.43 543.772 1194.88 538.587C1198.65 536.518 1203.81 536.447 1207.2 533.871C1211.87 530.332 1215.48 525.416 1220.31 522.058C1229.53 515.653 1242.33 511.93 1252.79 507.721C1263.09 503.576 1273.5 499.078 1284.17 495.994C1333.83 481.644 1389.14 485.016 1437.7 501.979C1459.57 509.618 1503.35 537.623 1525.12 531.934C1545.8 526.531 1559 512.882 1574.27 499.345C1579.37 494.83 1584.94 490.874 1589.98 486.297C1594.62 482.085 1599.08 476.995 1604.09 473.3C1608.33 470.176 1613.41 468.243 1617.81 465.358C1636.07 453.399 1654.42 438.912 1674.29 429.726C1695.95 419.709 1736 407.066 1759.69 403.229C1766.82 402.075 1774.2 403.24 1781.27 402.112C1789.06 400.868 1796.41 397.425 1804.27 396.413C1813.16 395.269 1821.35 397.387 1830.35 395.48L1832.01 395.12Z"/><path fill="#FC6EB7" transform="matrix(0.514423 0 0 0.540598 3.05176e-05 0)" d="M1521.37 1137.97C1541.19 1136.34 1548.83 1156.21 1560.59 1168.66C1569.16 1177.69 1578.93 1185.48 1589.64 1191.82C1658.01 1233.18 1760.68 1230.15 1824.18 1181.04C1838.53 1169.94 1855.49 1141.05 1868.58 1138.28C1874.75 1136.98 1881.22 1138.57 1886.38 1142.11C1891.33 1145.51 1894.8 1150.79 1895.61 1156.78C1897.31 1169.34 1887.9 1181.19 1880.76 1190.5C1864.6 1212.19 1841.41 1229.76 1817.48 1242.03C1756.3 1273.41 1679.81 1277.16 1614.75 1255.89C1577.56 1243.74 1543.49 1223.66 1518.77 1192.85C1514.17 1187.12 1509.43 1181.23 1506.22 1174.58C1502.94 1167.79 1501.58 1159.98 1504.39 1152.78C1507.55 1144.69 1513.85 1141.16 1521.37 1137.97Z"/><path fill="#7F30A7" transform="matrix(0.514423 0 0 0.540598 3.05176e-05 0)" d="M2022.97 889.087C2030.81 891.073 2036.87 892.525 2041.23 900.031C2047.5 910.803 2045.19 930.456 2043.95 942.53C2058.96 935.296 2072.88 932.063 2089.1 937.663C2103.84 942.753 2114.76 953.503 2121.44 967.444C2129.93 985.142 2131.35 1006.69 2124.7 1025.22C2119.41 1039.97 2108.14 1053.37 2093.83 1060.01C2081.54 1065.71 2067.57 1067.33 2054.74 1062.35C2050.17 1060.58 2046.27 1057.79 2042.43 1054.81C2037.05 1060.41 2032.25 1063.26 2024.33 1063.4C2018.76 1063.5 2013.17 1062.49 2009.17 1058.3C2006.58 1055.57 2004.9 1052 2004.07 1048.35C2001.22 1035.8 2000.49 988.688 2001.76 974.973C2001.8 974.547 2001.89 974.126 2001.95 973.702C2000.93 959.666 1999.92 912.896 2004.51 901.745C2007.85 895.258 2012.04 892.564 2018.9 890.333C2020.25 889.897 2021.61 889.482 2022.97 889.087Z"/><path fill="#7A2B99" transform="matrix(0.514423 0 0 0.540598 3.05176e-05 0)" d="M2004.51 901.745C2007.17 912.447 2006.28 963.546 2001.95 973.702C2000.93 959.666 1999.92 912.896 2004.51 901.745Z"/><path fill="#FEFEFD" transform="matrix(0.514423 0 0 0.540598 3.05176e-05 0)" d="M2060.12 977.043C2064.43 976.79 2069.2 976.43 2073.26 978.125C2078.82 980.445 2083.27 985.412 2085.38 990.998C2087.78 997.37 2087.75 1004.87 2084.77 1011.04C2081.67 1017.44 2076.86 1020.84 2070.26 1022.95C2066.25 1023.38 2062.84 1023.19 2058.98 1021.93C2053.38 1020.12 2048.8 1016.04 2046.37 1010.68C2043.45 1004.17 2043.34 996.745 2046.08 990.159C2049.05 982.945 2053.35 980.064 2060.12 977.043Z"/><path fill="#FC6EB7" transform="matrix(0.514423 0 0 0.540598 3.05176e-05 0)" d="M1076.41 893.386C1079.42 892.684 1082.7 892.799 1085.79 892.691C1109.91 891.85 1136.43 893.099 1154.95 910.661C1166.81 921.911 1172.94 937.959 1173.22 954.176C1173.5 969.655 1168.36 985.268 1157.32 996.367C1139.1 1014.69 1115.13 1016.33 1090.75 1016.19L1088.75 1016.55C1084.14 1025.15 1090.47 1043.41 1083.21 1055.97C1080.78 1060.17 1076.99 1063.09 1072.28 1064.27C1066.67 1065.67 1058.96 1065.28 1054.03 1062.01C1049.05 1058.71 1046.19 1052.58 1045.31 1046.82C1041.93 1024.69 1040.53 915.332 1051.16 901.875C1056.97 894.518 1067.84 894.179 1076.41 893.386Z"/><path fill="#FEFEFD" transform="matrix(0.514423 0 0 0.540598 3.05176e-05 0)" d="M1087.67 934.917C1100 934.761 1113.43 933.275 1123.75 941.601C1126.72 944 1129.64 947.645 1129.92 951.608C1130.33 957.624 1126.99 964.496 1123.3 969.022C1112.3 976.119 1100.11 974.851 1087.59 974.858C1087.33 961.545 1087.36 948.229 1087.67 934.917Z"/><path fill="#7F30A7" transform="matrix(0.514423 0 0 0.540598 3.05176e-05 0)" d="M1405.02 1029.44C1406.04 1024.86 1406.95 1020.14 1409.46 1016.1C1424.88 991.296 1452.27 1030.22 1481.04 1023.23C1484.03 1022.5 1487.21 1020.49 1488.77 1017.77C1490.07 1015.5 1490.15 1012.6 1489.32 1010.1C1486.82 1002.6 1446.4 990.093 1437.61 985.513C1425.22 979.064 1415.52 970.252 1411.41 956.427C1407.74 944.065 1408.82 930.951 1415.22 919.686C1422.85 906.247 1435.66 897.878 1450.4 893.989C1469.31 889.001 1492.9 891.157 1509.81 901.358C1516.67 905.496 1523.51 912.055 1525.16 920.21C1526.32 925.962 1525.31 931.773 1521.9 936.573C1506.85 957.699 1482.67 927.917 1463.56 931.888C1459.71 932.688 1457.26 934.923 1455.37 938.276C1454.1 940.554 1453.52 942.349 1454.6 944.896C1457.87 952.629 1473.91 956.614 1481.3 959.3C1491.87 962.818 1503.09 966.317 1512.35 972.647C1521.53 977.743 1528.36 985.76 1532.17 995.518C1536.69 1007.09 1536.2 1021.48 1531.19 1032.79C1525.19 1046.31 1513.25 1055.74 1499.57 1060.74C1478 1068.62 1452.56 1066.61 1431.89 1057.01C1418.91 1050.98 1410 1043.12 1405.02 1029.44Z"/><path fill="#7F30A7" transform="matrix(0.514423 0 0 0.540598 3.05176e-05 0)" d="M1886.01 944.661C1896.59 937.235 1907.26 934.097 1920.19 935.069C1930.78 936.562 1938.54 940.497 1947.69 945.712C1952.02 940.426 1956.39 936.975 1963.47 936.427C1969.65 935.948 1975.7 938.494 1980.18 942.634C1981.23 943.591 1982.23 944.597 1983.18 945.648C1984.23 949.264 1985.15 952.806 1985.5 956.572C1986.82 970.386 1988.03 1047.2 1983.07 1055.55C1980.76 1059.45 1976.66 1062.7 1972.25 1063.83C1966.11 1065.4 1958.34 1063.43 1953.11 1060.05C1950.59 1058.43 1948.34 1056.17 1946.8 1053.6C1933.8 1061.89 1921.22 1067.28 1905.54 1063.94C1891.09 1060.86 1878.63 1051.64 1870.71 1039.28C1859.85 1022.33 1857.43 1001.05 1861.95 981.651C1865.45 966.624 1873.45 953.774 1886.01 944.661Z"/><path fill="#7A2B99" transform="matrix(0.514423 0 0 0.540598 3.05176e-05 0)" d="M1886.01 944.661C1896.59 937.235 1907.26 934.097 1920.19 935.069L1919.37 936.717C1915.13 937.974 1910.71 935.898 1906.88 937.099C1899.56 939.393 1896.73 944.858 1887.92 944.634C1887.28 944.618 1886.64 944.652 1886.01 944.661Z"/><path fill="#FEFEFD" transform="matrix(0.514423 0 0 0.540598 3.05176e-05 0)" d="M1920.41 976.258C1924.16 976.632 1927.9 976.903 1931.32 978.621C1936.65 981.32 1940.61 986.122 1942.25 991.868C1944.17 998.412 1943.53 1005.74 1940.22 1011.72C1936.35 1018.7 1931.29 1020.93 1923.93 1022.87C1919.89 1022.68 1915.9 1022.35 1912.34 1020.25C1906.94 1017.05 1903.35 1011.56 1902.02 1005.48C1900.56 998.824 1901.66 991.582 1905.37 985.829C1909.16 979.937 1913.81 977.843 1920.41 976.258Z"/><path fill="#7F30A7" transform="matrix(0.514423 0 0 0.540598 3.05176e-05 0)" d="M1671.63 1020.1C1671.26 1021.04 1670.87 1021.98 1670.47 1022.9C1663.25 1039.91 1651.22 1053.78 1633.78 1060.71C1617.06 1067.16 1598.45 1066.61 1582.14 1059.19C1566.9 1052.43 1555.01 1039.83 1549.15 1024.22C1542.71 1006.93 1543.39 987.796 1551.05 971.012C1558.38 955.353 1571.65 943.264 1587.92 937.427C1605.03 931.415 1625.29 933.474 1641.34 941.741C1653.02 947.758 1664.53 960.306 1668.83 972.767C1676.4 987.275 1676.29 1004.19 1671.79 1019.59C1671.74 1019.76 1671.68 1019.93 1671.63 1020.1Z"/><path fill="#FEFEFD" transform="matrix(0.514423 0 0 0.540598 3.05176e-05 0)" d="M1605.04 975.872C1618.08 973.247 1630.76 981.705 1633.35 994.743C1635.94 1007.78 1627.44 1020.44 1614.39 1022.99C1601.4 1025.53 1588.8 1017.08 1586.23 1004.09C1583.65 991.108 1592.07 978.486 1605.04 975.872Z"/><path fill="#FC6EB7" transform="matrix(0.514423 0 0 0.540598 3.05176e-05 0)" d="M1697.53 692.037C1702.51 691.395 1707.59 691.564 1712.28 693.606C1727.91 700.424 1724.57 724.91 1729.7 738.75C1734.6 751.96 1744.24 762.421 1757.14 768.134C1767.47 772.707 1780.24 774.803 1791.49 774.31C1840.26 772.176 1833.91 733.095 1855.7 725.607C1862.04 723.428 1869.25 724.42 1875.1 727.547C1880.19 730.269 1884.41 734.847 1885.83 740.538C1888.9 752.854 1880.09 766.935 1873.8 776.848C1865.19 790.748 1851.76 802.355 1837.3 809.829C1811.19 823.333 1778.26 825.159 1750.48 815.948C1725.21 807.57 1702.79 789.854 1690.87 765.757C1683.16 750.167 1675.43 723.76 1681.83 706.71C1684.81 698.784 1690.02 695.23 1697.53 692.037Z"/><path fill="#FCABD5" transform="matrix(0.514423 0 0 0.540598 3.05176e-05 0)" d="M1855.23 473.14C1898.97 472.074 1967.46 502.732 2002.9 526.828C2015.18 535.179 2027.22 546.196 2038.26 556.154C2073.44 587.902 2117.37 653.262 2119.79 701.693C2116.33 708.413 2113.73 711.71 2107.01 715.618C2104.61 715.561 2102.06 715.577 2099.71 715.008C2094.39 713.718 2090.97 709.787 2088.37 705.176C2083.45 696.447 2081.8 685.08 2078.54 675.537C2071.69 655.474 2062.23 638.909 2050.64 621.251C2017.14 570.17 1959.82 533.274 1901.94 515.969C1889.39 512.216 1876.59 510.348 1863.84 507.558C1856.58 505.971 1848.65 502.504 1844.75 495.805C1842.87 492.568 1842.19 488.761 1843.29 485.142C1845.13 479.066 1849.87 475.864 1855.23 473.14Z"/><path fill="#FC6EB7" transform="matrix(0.514423 0 0 0.540598 3.05176e-05 0)" d="M1232.27 934.069C1243.63 933.222 1254.45 934.422 1264.99 938.956C1276.31 943.824 1285.72 953.074 1290.08 964.684C1293.47 973.692 1293.99 983.485 1289.66 992.278C1281.65 1008.52 1258.74 1015.07 1241.86 1016.06C1236.13 1016.39 1229.86 1015.14 1224.37 1016.93L1224.16 1018.42C1224.97 1019.37 1225.07 1019.59 1226.26 1020.39C1241.97 1031 1258.35 1019.52 1274.2 1018.26C1279.31 1017.86 1284.87 1018.73 1288.73 1022.37C1293.49 1026.85 1294.28 1033.39 1294.65 1039.56C1293.92 1041.91 1293.09 1044.33 1291.95 1046.52C1287.54 1054.93 1277.05 1059.49 1268.32 1061.86C1248.54 1067.23 1226.38 1067.3 1208.26 1056.76C1194.19 1048.59 1185.18 1035.06 1181.14 1019.47C1176.38 1001.09 1178.55 979.826 1188.36 963.397C1198.73 946.029 1213.25 938.78 1232.27 934.069Z"/><path fill="#FEFEFD" transform="matrix(0.514423 0 0 0.540598 3.05176e-05 0)" d="M1237.77 971.986C1238.72 972.001 1239.67 972.053 1240.62 972.136C1245.04 972.524 1248.27 972.521 1251.28 976.118L1250.95 978.429C1246.6 983.951 1241.41 984.268 1234.91 985.636C1229.96 986.145 1225.03 987.009 1220.11 987.742C1225.11 978.911 1228.32 975.398 1237.77 971.986Z"/><path fill="#7F30A7" transform="matrix(0.514423 0 0 0.540598 3.05176e-05 0)" d="M2249.39 934.219C2261.07 932.352 2274.15 934.722 2284.6 940.22C2295.31 945.862 2303.71 955.588 2307.15 967.272C2309.8 976.281 2309.25 986.038 2304.45 994.234C2295.61 1009.31 2272.42 1015.39 2256.03 1016.36C2251.44 1016.63 2245.96 1015.36 2241.62 1016.46C2241.69 1018.04 2242.23 1018.85 2243.21 1020.04C2254.89 1034.24 2281.68 1016.96 2296.75 1018.78C2300.92 1019.29 2305.36 1020.83 2307.82 1024.45C2311.67 1030.12 2311.45 1036.73 2310.52 1043.16C2310.15 1043.81 2309.77 1044.45 2309.37 1045.08C2302.28 1056.17 2289.32 1061.44 2276.9 1063.92C2258.38 1067.62 2237.58 1065.59 2221.7 1054.71C2208.01 1045.33 2199.77 1030.57 2196.76 1014.44C2193.21 995.363 2196.73 974.512 2208.01 958.511C2218.38 943.786 2232.01 937.183 2249.39 934.219Z"/><path fill="#FEFEFD" transform="matrix(0.514423 0 0 0.540598 3.05176e-05 0)" d="M2251.97 972.212C2254.55 971.965 2257.16 971.806 2259.76 971.951C2263.13 972.139 2265.03 973.351 2267.26 975.776C2267.49 977.455 2267.9 977.914 2266.93 979.46C2264.49 983.379 2258.8 984.032 2254.63 985.116L2236.18 988.748C2240.59 980.353 2243.04 976.134 2251.97 972.212Z"/><path fill="#FC6EB7" transform="matrix(0.514423 0 0 0.540598 3.05176e-05 0)" d="M1335.66 897.246C1342.26 897.114 1349.27 897.644 1354.19 902.603C1362.18 910.66 1359.99 927.39 1359.95 937.899C1368.95 937.66 1378.58 936.653 1386.12 942.638C1390.26 945.917 1392.65 950.667 1393.08 955.91C1393.59 962.207 1391.51 969.389 1387.13 974.044C1381.16 980.401 1367.89 978.964 1359.78 978.982C1359.93 988.913 1358.92 998.824 1359.11 1008.7C1359.19 1012.6 1359.86 1016.63 1363.05 1019.26C1368.96 1024.14 1377 1022.13 1383.96 1021.39C1386.49 1022.9 1389.03 1024.62 1390.85 1026.99C1394.8 1032.11 1396.88 1039.15 1395.97 1045.58C1394.99 1052.52 1392.07 1056.24 1386.52 1060.21C1379.76 1063.71 1372.05 1065.16 1364.47 1065.18C1352.22 1065.21 1340.05 1061.05 1331.46 1052.07C1313.86 1033.69 1317.44 1002.9 1317.65 979.486C1313.81 979.217 1309.92 979.049 1306.55 976.982C1302.05 974.209 1298.86 969.75 1297.68 964.603C1296.26 958.609 1297.26 952.296 1300.47 947.038C1304.77 940.153 1310.16 938.456 1317.6 936.823C1317.09 927.117 1315.69 914.244 1321.23 905.7C1324.72 900.339 1329.72 898.631 1335.66 897.246Z"/><path fill="#7F30A7" transform="matrix(0.514423 0 0 0.540598 3.05176e-05 0)" d="M1739.25 934.207C1749.21 932.48 1761.27 934.633 1770.63 938.185C1778.63 941.223 1789.14 947.615 1792.46 955.769C1794.44 960.622 1793.94 966.137 1791.8 970.845C1779.13 998.8 1756.04 968.4 1739.01 975.601C1733.02 978.135 1728.71 984.821 1726.69 990.767C1724.28 997.88 1724.55 1004.85 1727.88 1011.59C1730.99 1017.9 1736.91 1021.99 1743.63 1023.84C1753.07 1026.45 1764.33 1017.59 1772.15 1013.02C1776.1 1013.91 1780.1 1014.75 1783.71 1016.65C1789.63 1019.78 1792.2 1024.48 1794.16 1030.66C1794.04 1036.4 1792.78 1041.9 1789.53 1046.71C1782.8 1056.67 1767.99 1062.38 1756.5 1064.4C1740.31 1067.33 1723.63 1063.63 1710.2 1054.13C1696.43 1044.23 1687.23 1028.3 1684.51 1011.66C1681.54 993.446 1685.77 973.776 1696.67 958.798C1707.21 944.297 1721.79 936.901 1739.25 934.207Z"/><path fill="#FCABD5" transform="matrix(0.514423 0 0 0.540598 3.05176e-05 0)" d="M1683.92 1376.18C1700.07 1378.82 1716.6 1390.55 1731.75 1397.18C1786.31 1421.47 1847.86 1424.98 1904.82 1407.05C1910.62 1408.87 1916.15 1410.28 1919.54 1415.81C1921.76 1419.43 1922.76 1423.71 1921.47 1427.84C1919.45 1434.32 1914.82 1437.75 1909.01 1440.63C1864.2 1458.25 1807.63 1454.14 1761.89 1442.37C1741.34 1437.08 1682.32 1418.4 1672.59 1400.62C1670.11 1396.09 1670.19 1390.8 1671.96 1386.02C1673.99 1380.53 1678.9 1378.32 1683.92 1376.18Z"/><path fill="#FCABD5" transform="matrix(0.514423 0 0 0.540598 3.05176e-05 0)" d="M2415.39 1119.87C2418.31 1119.92 2421.07 1120.15 2423.86 1121.09C2430.41 1123.27 2432.86 1128.84 2435.52 1134.62C2428.3 1162.91 2417.81 1187.47 2400.79 1211.27C2376.64 1245.06 2331.7 1276.88 2290.24 1283.76C2287.91 1283.6 2285.48 1283.49 2283.21 1282.91C2278.57 1281.7 2274.61 1278.25 2272.47 1273.99C2270.54 1270.13 2270.36 1265.63 2271.97 1261.62C2276.97 1249.36 2286.94 1251.59 2297.11 1247.43C2336.02 1231.48 2369.83 1206.32 2388.43 1167.67C2393.54 1157.06 2396.38 1145.86 2400.87 1135.07C2404.33 1126.75 2407.04 1123.33 2415.39 1119.87Z"/><path fill="#7F30A7" transform="matrix(0.514423 0 0 0.540598 3.05176e-05 0)" d="M2141.15 1013.6C2139.79 999.232 2140.96 983.744 2140.96 969.267C2140.97 951.212 2139.86 932.453 2141.27 914.475C2141.62 909.998 2142.18 904.751 2144.16 900.696C2146.39 896.121 2150.66 892.674 2155.51 891.243C2162.26 889.253 2168.21 890.658 2174.23 893.944C2178.13 896.097 2180.19 899.411 2181.43 903.663C2184.98 915.895 2184.25 1019.31 2182.79 1039.25C2182.42 1044.39 2181.71 1051.1 2179.16 1055.63C2176.74 1059.94 2172.54 1062.47 2167.78 1063.46C2162.08 1064.65 2154.67 1063.64 2149.78 1060.33C2144.58 1056.81 2142.89 1049.51 2142.01 1043.71C2140.55 1034.13 2140.96 1023.31 2141.15 1013.6Z"/><path fill="#7A2B99" transform="matrix(0.514423 0 0 0.540598 3.05176e-05 0)" d="M2141.15 1013.6C2139.79 999.232 2140.96 983.744 2140.96 969.267C2140.97 951.212 2139.86 932.453 2141.27 914.475C2141.62 909.998 2142.18 904.751 2144.16 900.696C2146.39 896.121 2150.66 892.674 2155.51 891.243C2162.26 889.253 2168.21 890.658 2174.23 893.944C2169.13 895.225 2161.92 892.984 2156.27 893.561C2152.64 897.5 2149.12 901.848 2144.79 905.04C2141.65 930.062 2143.58 956.31 2143.29 981.545C2143.19 989.536 2141.46 998.597 2141.9 1006.33C2142.02 1008.42 2142.73 1010.57 2143.29 1012.57C2141.83 1013.77 2142.59 1013.56 2141.15 1013.6Z"/><path fill="#7F30A7" transform="matrix(0.514423 0 0 0.540598 3.05176e-05 0)" d="M1808.54 948.721C1811.36 943.26 1815.33 939.978 1821.2 938.016C1826.21 936.342 1831.63 935.95 1836.41 938.528C1841.93 941.498 1845.03 947.311 1846.45 953.221C1850.9 971.826 1847.18 1018.7 1847.99 1040.34C1847.18 1048.2 1846.53 1054.16 1840.39 1059.85C1837.6 1061.4 1834.82 1062.99 1831.65 1063.6C1823.94 1065.1 1818.24 1062.19 1812.1 1057.98C1810.61 1055.53 1809.48 1052.96 1808.31 1050.34C1804.33 1037.56 1803.99 961.467 1808.54 948.721Z"/><path fill="#7A2B99" transform="matrix(0.514423 0 0 0.540598 3.05176e-05 0)" d="M1808.54 948.721C1810.79 958.203 1811.05 1042.39 1808.31 1050.34C1804.33 1037.56 1803.99 961.467 1808.54 948.721Z"/><path fill="#FCABD5" transform="matrix(0.514423 0 0 0.540598 3.05176e-05 0)" d="M923.032 930.021C926.943 929.821 930.256 930.949 933.434 933.19C937.784 936.258 941.09 940.816 940.657 946.346C939.999 954.737 933.71 962.522 930.299 970.027C917.238 998.766 914.153 1031.4 919.517 1062.29C918.645 1064.67 917.811 1067.2 916.664 1069.46C913.78 1075.14 909.825 1076.86 903.967 1078.68C901.032 1078.29 897.841 1078.03 895.213 1076.57C889.83 1073.57 886.835 1067.12 885.38 1061.39C876.626 1026.93 889.316 972.925 907.159 942.444C911.661 934.753 914.489 932.188 923.032 930.021Z"/><path fill="#FCABD5" transform="matrix(0.514423 0 0 0.540598 3.05176e-05 0)" d="M1262.44 1355.92C1278.49 1354.01 1301.97 1372.42 1319.08 1376.86C1330.38 1379.79 1343.44 1381.7 1355.06 1382.48C1364.06 1383.09 1373.69 1382.16 1382.41 1384.66C1387.08 1386 1392.15 1388.62 1394.29 1393.23C1396.04 1397.02 1395.17 1401.33 1393.78 1405.1C1391.7 1410.72 1387.63 1413.03 1382.41 1415.35C1366.24 1418.99 1345.78 1416.64 1329.56 1413.41C1310.88 1409.71 1263.08 1395.83 1252.56 1379.05C1250.75 1376.17 1249.68 1372.52 1250.68 1369.16C1252.58 1362.79 1256.91 1359.1 1262.44 1355.92Z"/><path fill="#FC6EB7" transform="matrix(0.514423 0 0 0.540598 3.05176e-05 0)" d="M1730.94 618.782C1745.06 615.765 1758.93 624.82 1761.85 638.957C1764.77 653.093 1755.62 666.905 1741.47 669.731C1727.45 672.53 1713.79 663.488 1710.9 649.485C1708.01 635.482 1716.96 621.769 1730.94 618.782Z"/><path fill="#FC6EB7" transform="matrix(0.514423 0 0 0.540598 3.05176e-05 0)" d="M1870.23 651.744C1879.23 649.149 1888.93 651.618 1895.6 658.2C1902.26 664.783 1904.86 674.453 1902.37 683.487C1899.89 692.521 1892.72 699.51 1883.63 701.764C1869.93 705.158 1856.04 696.96 1852.39 683.33C1848.74 669.699 1856.67 655.654 1870.23 651.744Z"/><path fill="#7F30A7" transform="matrix(0.514423 0 0 0.540598 3.05176e-05 0)" d="M1822.16 883.407C1834.4 880.819 1846.42 888.648 1849 900.892C1851.59 913.136 1843.75 925.155 1831.51 927.733C1819.27 930.31 1807.26 922.482 1804.68 910.245C1802.1 898.008 1809.92 885.994 1822.16 883.407Z"/></svg>